# Blender 4.1.1
# www.blender.org
mtllib arrow.mtl
o Cone
v 0.000000 0.100000 1.995106
v 0.058779 0.080902 1.995106
v 0.095106 0.030902 1.995106
v 0.095106 -0.030902 1.995106
v 0.058779 -0.080902 1.995106
v 0.000000 -0.100000 1.995106
v -0.058779 -0.080902 1.995106
v -0.095106 -0.030902 1.995106
v -0.095106 0.030902 1.995106
v -0.058779 0.080902 1.995106
v 0.000000 -0.000000 2.495106
vn 0.3036 0.9343 0.1869
vn 0.7948 0.5774 0.1869
vn 0.9824 -0.0000 0.1869
vn 0.7948 -0.5774 0.1869
vn 0.3036 -0.9343 0.1869
vn -0.3036 -0.9343 0.1869
vn -0.7948 -0.5774 0.1869
vn -0.9824 -0.0000 0.1869
vn -0.0000 -0.0000 -1.0000
vn -0.7948 0.5774 0.1869
vn -0.3036 0.9343 0.1869
vt 0.250000 0.490000
vt 0.250000 0.250000
vt 0.391068 0.444164
vt 0.478254 0.324164
vt 0.478254 0.175836
vt 0.391068 0.055836
vt 0.250000 0.010000
vt 0.108932 0.055836
vt 0.021746 0.175836
vt 0.021746 0.324164
vt 0.978254 0.175836
vt 0.521746 0.175836
vt 0.608932 0.444164
vt 0.108932 0.444164
vt 0.750000 0.490000
vt 0.891068 0.444164
vt 0.978254 0.324164
vt 0.891068 0.055836
vt 0.750000 0.010000
vt 0.608932 0.055836
vt 0.521746 0.324164
s 0
f 1/1/1 11/2/1 2/3/1
f 2/3/2 11/2/2 3/4/2
f 3/4/3 11/2/3 4/5/3
f 4/5/4 11/2/4 5/6/4
f 5/6/5 11/2/5 6/7/5
f 6/7/6 11/2/6 7/8/6
f 7/8/7 11/2/7 8/9/7
f 8/9/8 11/2/8 9/10/8
f 4/11/9 8/12/9 10/13/9
f 9/10/10 11/2/10 10/14/10
f 10/14/11 11/2/11 1/1/11
f 10/13/9 1/15/9 2/16/9
f 2/16/9 3/17/9 10/13/9
f 3/17/9 4/11/9 10/13/9
f 4/11/9 5/18/9 6/19/9
f 6/19/9 7/20/9 8/12/9
f 8/12/9 9/21/9 10/13/9
f 4/11/9 6/19/9 8/12/9
o Cylinder
v 0.000000 0.000000 0.001751
v 0.000000 -0.000000 2.001751
v 0.000000 0.050000 0.001751
v 0.000000 0.050000 2.001751
v 0.029389 0.040451 0.001751
v 0.029389 0.040451 2.001751
v 0.047553 0.015451 0.001751
v 0.047553 0.015451 2.001751
v 0.047553 -0.015451 0.001751
v 0.047553 -0.015451 2.001751
v 0.029389 -0.040451 0.001751
v 0.029389 -0.040451 2.001751
v 0.000000 -0.050000 0.001751
v 0.000000 -0.050000 2.001751
v -0.029389 -0.040451 0.001751
v -0.029389 -0.040451 2.001751
v -0.047553 -0.015451 0.001751
v -0.047553 -0.015451 2.001751
v -0.047553 0.015451 0.001751
v -0.047553 0.015451 2.001751
v -0.029389 0.040451 0.001751
v -0.029389 0.040451 2.001751
vn -0.0000 -0.0000 -1.0000
vn -0.0000 -0.0000 1.0000
vn 0.3090 0.9511 -0.0000
vn 0.8090 0.5878 -0.0000
vn 1.0000 -0.0000 -0.0000
vn 0.8090 -0.5878 -0.0000
vn 0.3090 -0.9511 -0.0000
vn -0.3090 -0.9511 -0.0000
vn -0.8090 -0.5878 -0.0000
vn -1.0000 -0.0000 -0.0000
vn -0.8090 0.5878 -0.0000
vn -0.3090 0.9511 -0.0000
vt 0.750000 0.250000
vt 0.750000 0.490000
vt 0.891068 0.444164
vt 0.250000 0.250000
vt 0.391068 0.444164
vt 0.250000 0.490000
vt 1.000000 1.000000
vt 0.900000 0.500000
vt 1.000000 0.500000
vt 0.978254 0.324164
vt 0.478254 0.324164
vt 0.900000 1.000000
vt 0.800000 0.500000
vt 0.978254 0.175836
vt 0.478254 0.175836
vt 0.800000 1.000000
vt 0.700000 0.500000
vt 0.891068 0.055836
vt 0.391068 0.055836
vt 0.700000 1.000000
vt 0.600000 0.500000
vt 0.750000 0.010000
vt 0.250000 0.010000
vt 0.600000 1.000000
vt 0.500000 0.500000
vt 0.608932 0.055836
vt 0.108932 0.055836
vt 0.500000 1.000000
vt 0.400000 0.500000
vt 0.521746 0.175836
vt 0.021746 0.175836
vt 0.400000 1.000000
vt 0.300000 0.500000
vt 0.521746 0.324164
vt 0.021746 0.324164
vt 0.300000 1.000000
vt 0.200000 0.500000
vt 0.608932 0.444164
vt 0.108932 0.444164
vt 0.200000 1.000000
vt 0.100000 0.500000
vt 0.100000 1.000000
vt -0.000000 0.500000
vt -0.000000 1.000000
s 0
f 12/22/12 14/23/12 16/24/12
f 13/25/13 17/26/13 15/27/13
f 15/28/14 16/29/14 14/30/14
f 12/22/12 16/24/12 18/31/12
f 13/25/13 19/32/13 17/26/13
f 17/33/15 18/34/15 16/29/15
f 12/22/12 18/31/12 20/35/12
f 13/25/13 21/36/13 19/32/13
f 19/37/16 20/38/16 18/34/16
f 12/22/12 20/35/12 22/39/12
f 13/25/13 23/40/13 21/36/13
f 21/41/17 22/42/17 20/38/17
f 12/22/12 22/39/12 24/43/12
f 13/25/13 25/44/13 23/40/13
f 23/45/18 24/46/18 22/42/18
f 12/22/12 24/43/12 26/47/12
f 13/25/13 27/48/13 25/44/13
f 25/49/19 26/50/19 24/46/19
f 12/22/12 26/47/12 28/51/12
f 13/25/13 29/52/13 27/48/13
f 27/53/20 28/54/20 26/50/20
f 12/22/12 28/51/12 30/55/12
f 13/25/13 31/56/13 29/52/13
f 29/57/21 30/58/21 28/54/21
f 12/22/12 30/55/12 32/59/12
f 13/25/13 33/60/13 31/56/13
f 31/61/22 32/62/22 30/58/22
f 12/22/12 32/59/12 14/23/12
f 13/25/13 15/27/13 33/60/13
f 33/63/23 14/64/23 32/62/23
f 15/28/14 17/33/14 16/29/14
f 17/33/15 19/37/15 18/34/15
f 19/37/16 21/41/16 20/38/16
f 21/41/17 23/45/17 22/42/17
f 23/45/18 25/49/18 24/46/18
f 25/49/19 27/53/19 26/50/19
f 27/53/20 29/57/20 28/54/20
f 29/57/21 31/61/21 30/58/21
f 31/61/22 33/63/22 32/62/22
f 33/63/23 15/65/23 14/64/23
